<svg width="173" height="41" viewBox="0 0 173 41" fill="none" xmlns="http://www.w3.org/2000/svg">
<path fill-rule="evenodd" clip-rule="evenodd" d="M17.7188 8.03125C11.8162 8.03125 7.03125 12.8162 7.03125 18.7188C7.03125 24.6213 11.8162 29.4062 17.7188 29.4062C23.6213 29.4062 28.4062 24.6213 28.4062 18.7188C28.4062 12.8162 23.6213 8.03125 17.7188 8.03125ZM3.46875 18.7188C3.46875 10.8487 9.84869 4.46875 17.7188 4.46875C25.5888 4.46875 31.9688 10.8487 31.9688 18.7188C31.9688 26.5888 25.5888 32.9688 17.7188 32.9688C9.84869 32.9688 3.46875 26.5888 3.46875 18.7188Z" fill="#0880C7"/>
<path fill-rule="evenodd" clip-rule="evenodd" d="M25.2756 26.2795C25.9712 25.5839 27.0991 25.5839 27.7947 26.2795L35.0088 33.4936C35.7044 34.1892 35.7044 35.317 35.0088 36.0127C34.3131 36.7083 33.1853 36.7083 32.4897 36.0127L25.2756 28.7986C24.58 28.103 24.58 26.9751 25.2756 26.2795Z" fill="#0880C7"/>
<path d="M57.2466 21.0156H52.5734L52.5484 18.4416H56.4719C57.1633 18.4416 57.7297 18.3542 58.1712 18.1792C58.6127 17.996 58.9418 17.7336 59.1583 17.392C59.3832 17.0422 59.4957 16.6173 59.4957 16.1175C59.4957 15.5511 59.3874 15.0929 59.1708 14.7431C58.9626 14.3932 58.6335 14.1391 58.1837 13.9809C57.7422 13.8226 57.1716 13.7435 56.4719 13.7435H53.8729V29H50.1244V10.8071H56.4719C57.5298 10.8071 58.4753 10.9071 59.3083 11.107C60.1496 11.3069 60.8618 11.611 61.4449 12.0191C62.028 12.4273 62.4737 12.9438 62.7819 13.5685C63.0901 14.185 63.2442 14.918 63.2442 15.7677C63.2442 16.5174 63.0735 17.2088 62.7319 17.8419C62.3987 18.4749 61.8698 18.9914 61.1451 19.3913C60.4287 19.7911 59.4915 20.0118 58.3337 20.0535L57.2466 21.0156ZM57.0841 29H51.5488L53.0107 26.0761H57.0841C57.7422 26.0761 58.2795 25.972 58.696 25.7638C59.1125 25.5472 59.4207 25.2556 59.6207 24.8891C59.8206 24.5226 59.9205 24.1019 59.9205 23.6271C59.9205 23.094 59.8289 22.6317 59.6456 22.2401C59.4707 21.8486 59.1875 21.5487 58.796 21.3405C58.4045 21.1239 57.888 21.0156 57.2466 21.0156H53.6355L53.6605 18.4416H58.1587L59.0209 19.4537C60.1288 19.4371 61.0201 19.6328 61.6948 20.041C62.3779 20.4408 62.8735 20.9615 63.1818 21.6029C63.4983 22.2443 63.6566 22.9315 63.6566 23.6646C63.6566 24.8308 63.4025 25.8137 62.8944 26.6134C62.3862 27.4048 61.6407 28.0004 60.6577 28.4002C59.6831 28.8001 58.4919 29 57.0841 29ZM74.2399 25.7638V15.4803H77.8385V29H74.4524L74.2399 25.7638ZM74.6398 22.9898L75.7019 22.9649C75.7019 23.8645 75.5977 24.7017 75.3895 25.4764C75.1812 26.2427 74.8689 26.9092 74.4524 27.4756C74.0359 28.0337 73.5111 28.471 72.878 28.7876C72.2449 29.0958 71.4993 29.2499 70.6413 29.2499C69.9833 29.2499 69.3752 29.1583 68.8171 28.975C68.2673 28.7834 67.7925 28.4877 67.3926 28.0879C67.0011 27.6797 66.6929 27.1591 66.468 26.526C66.2514 25.8846 66.1431 25.114 66.1431 24.2144V15.4803H69.7417V24.2394C69.7417 24.6392 69.7875 24.9766 69.8791 25.2515C69.9791 25.5264 70.1166 25.7513 70.2915 25.9262C70.4664 26.1011 70.6705 26.2261 70.9037 26.3011C71.1453 26.376 71.4119 26.4135 71.7034 26.4135C72.4448 26.4135 73.0279 26.2636 73.4527 25.9637C73.8859 25.6638 74.19 25.2556 74.3649 24.7392C74.5482 24.2144 74.6398 23.6313 74.6398 22.9898ZM87.8971 25.264C87.8971 25.0057 87.8221 24.7725 87.6722 24.5642C87.5223 24.356 87.2432 24.1644 86.835 23.9895C86.4352 23.8062 85.8562 23.6396 85.0982 23.4897C84.4151 23.3397 83.7779 23.1523 83.1864 22.9274C82.6033 22.6941 82.0952 22.4151 81.662 22.0902C81.2372 21.7653 80.904 21.3821 80.6624 20.9406C80.4209 20.4908 80.3001 19.9785 80.3001 19.4037C80.3001 18.8373 80.4209 18.3042 80.6624 17.8044C80.9123 17.3046 81.2664 16.8631 81.7245 16.4799C82.191 16.0884 82.7574 15.7843 83.4239 15.5677C84.0986 15.3428 84.8566 15.2304 85.698 15.2304C86.8725 15.2304 87.8804 15.4178 88.7218 15.7927C89.5714 16.1675 90.2212 16.684 90.671 17.3421C91.1292 17.9918 91.3583 18.7332 91.3583 19.5662H87.7597C87.7597 19.2163 87.6847 18.9039 87.5347 18.6291C87.3931 18.3458 87.1682 18.1251 86.86 17.9668C86.5601 17.8002 86.1686 17.7169 85.6855 17.7169C85.2856 17.7169 84.9399 17.7877 84.6484 17.9293C84.3568 18.0626 84.1319 18.2459 83.9736 18.4791C83.8237 18.704 83.7487 18.9539 83.7487 19.2288C83.7487 19.4371 83.7904 19.6245 83.8737 19.7911C83.9653 19.9494 84.1111 20.0951 84.311 20.2284C84.5109 20.3617 84.7692 20.4867 85.0857 20.6033C85.4106 20.7116 85.8104 20.8115 86.2852 20.9032C87.2599 21.1031 88.1303 21.3655 88.8967 21.6904C89.6631 22.0069 90.2712 22.4401 90.721 22.9898C91.1708 23.5313 91.3957 24.2435 91.3957 25.1265C91.3957 25.7263 91.2625 26.2761 90.9959 26.7759C90.7293 27.2757 90.3461 27.713 89.8463 28.0879C89.3465 28.4544 88.7468 28.7418 88.047 28.95C87.3556 29.1499 86.5768 29.2499 85.7105 29.2499C84.4526 29.2499 83.3864 29.025 82.5117 28.5752C81.6454 28.1253 80.9873 27.5547 80.5375 26.8633C80.096 26.1636 79.8752 25.4472 79.8752 24.7142H83.2864C83.3031 25.2056 83.428 25.6013 83.6613 25.9012C83.9028 26.2011 84.2069 26.4177 84.5734 26.551C84.9483 26.6842 85.3523 26.7509 85.7854 26.7509C86.2519 26.7509 86.6393 26.6884 86.9475 26.5635C87.2557 26.4302 87.4889 26.2552 87.6472 26.0387C87.8138 25.8137 87.8971 25.5555 87.8971 25.264ZM99.3176 26.4385C99.7591 26.4385 100.151 26.3552 100.492 26.1886C100.834 26.0137 101.1 25.7721 101.292 25.4639C101.492 25.1473 101.596 24.7767 101.604 24.3518H104.99C104.982 25.3014 104.728 26.1469 104.228 26.8883C103.728 27.6214 103.058 28.2003 102.217 28.6251C101.375 29.0417 100.434 29.2499 99.3926 29.2499C98.343 29.2499 97.4267 29.075 96.6437 28.7251C95.869 28.3752 95.2234 27.8921 94.7069 27.2757C94.1905 26.6509 93.8031 25.9262 93.5449 25.1015C93.2867 24.2685 93.1575 23.3772 93.1575 22.4276V22.0652C93.1575 21.1073 93.2867 20.2159 93.5449 19.3913C93.8031 18.5582 94.1905 17.8335 94.7069 17.2171C95.2234 16.5923 95.869 16.105 96.6437 15.7552C97.4184 15.4053 98.3264 15.2304 99.3676 15.2304C100.476 15.2304 101.446 15.4428 102.279 15.8676C103.12 16.2925 103.778 16.9006 104.253 17.6919C104.736 18.4749 104.982 19.4037 104.99 20.4783H101.604C101.596 20.0285 101.5 19.6203 101.317 19.2538C101.142 18.8873 100.884 18.5957 100.542 18.3792C100.209 18.1542 99.7966 18.0418 99.3051 18.0418C98.7804 18.0418 98.3514 18.1542 98.0181 18.3792C97.6849 18.5957 97.4267 18.8956 97.2435 19.2788C97.0602 19.6537 96.9311 20.0827 96.8561 20.5658C96.7895 21.0406 96.7561 21.5404 96.7561 22.0652V22.4276C96.7561 22.9524 96.7895 23.4563 96.8561 23.9395C96.9227 24.4226 97.0477 24.8516 97.231 25.2265C97.4225 25.6013 97.6849 25.897 98.0181 26.1136C98.3514 26.3302 98.7845 26.4385 99.3176 26.4385ZM114.374 25.9512V19.9285C114.374 19.4954 114.303 19.1247 114.162 18.8165C114.02 18.4999 113.799 18.2542 113.5 18.0793C113.208 17.9043 112.829 17.8169 112.363 17.8169C111.963 17.8169 111.617 17.8877 111.325 18.0293C111.034 18.1626 110.809 18.3583 110.651 18.6166C110.492 18.8665 110.413 19.1622 110.413 19.5037H106.815C106.815 18.9289 106.948 18.3833 107.215 17.8669C107.481 17.3504 107.868 16.8964 108.377 16.5049C108.885 16.105 109.489 15.7927 110.188 15.5677C110.896 15.3428 111.688 15.2304 112.562 15.2304C113.612 15.2304 114.545 15.4053 115.361 15.7552C116.178 16.105 116.819 16.6298 117.286 17.3296C117.76 18.0293 117.998 18.9039 117.998 19.9535V25.7388C117.998 26.4802 118.044 27.0882 118.135 27.5631C118.227 28.0295 118.36 28.4377 118.535 28.7876V29H114.899C114.724 28.6335 114.591 28.1753 114.499 27.6255C114.416 27.0674 114.374 26.5093 114.374 25.9512ZM114.849 20.7657L114.874 22.8024H112.862C112.388 22.8024 111.975 22.8566 111.625 22.9649C111.275 23.0731 110.988 23.2273 110.763 23.4272C110.538 23.6188 110.372 23.8437 110.263 24.1019C110.163 24.3601 110.113 24.6434 110.113 24.9516C110.113 25.2598 110.184 25.5389 110.326 25.7888C110.467 26.0303 110.672 26.2219 110.938 26.3635C111.205 26.4968 111.517 26.5635 111.875 26.5635C112.417 26.5635 112.887 26.4552 113.287 26.2386C113.687 26.022 113.995 25.7554 114.212 25.4389C114.437 25.1223 114.553 24.8225 114.562 24.5392L115.511 26.0636C115.378 26.4052 115.195 26.7592 114.962 27.1257C114.737 27.4923 114.449 27.838 114.099 28.1628C113.75 28.4794 113.329 28.7418 112.837 28.95C112.346 29.1499 111.763 29.2499 111.088 29.2499C110.23 29.2499 109.451 29.0791 108.751 28.7376C108.06 28.3877 107.51 27.9088 107.102 27.3007C106.702 26.6842 106.502 25.9845 106.502 25.2015C106.502 24.4934 106.636 23.8645 106.902 23.3147C107.169 22.7649 107.56 22.3026 108.077 21.9278C108.602 21.5446 109.255 21.2572 110.038 21.0656C110.821 20.8657 111.729 20.7657 112.762 20.7657H114.849ZM137.915 22.9649H141.651C141.576 24.1894 141.239 25.2765 140.639 26.2261C140.048 27.1757 139.219 27.9171 138.152 28.4502C137.095 28.9833 135.82 29.2499 134.329 29.2499C133.163 29.2499 132.117 29.05 131.193 28.6501C130.268 28.242 129.477 27.6589 128.819 26.9008C128.169 26.1428 127.673 25.2265 127.332 24.1519C126.99 23.0773 126.819 21.8736 126.819 20.5408V19.2788C126.819 17.946 126.994 16.7423 127.344 15.6677C127.702 14.5848 128.211 13.6643 128.869 12.9063C129.535 12.1483 130.331 11.5651 131.255 11.157C132.18 10.7488 133.213 10.5447 134.354 10.5447C135.87 10.5447 137.149 10.8196 138.19 11.3694C139.24 11.9192 140.052 12.6772 140.626 13.6435C141.21 14.6098 141.559 15.7094 141.676 16.9422H137.928C137.886 16.2092 137.74 15.5886 137.49 15.0804C137.24 14.564 136.861 14.1766 136.353 13.9184C135.853 13.6518 135.187 13.5185 134.354 13.5185C133.729 13.5185 133.184 13.6352 132.717 13.8684C132.251 14.1017 131.859 14.4557 131.543 14.9305C131.226 15.4053 130.989 16.0051 130.83 16.7298C130.68 17.4462 130.605 18.2875 130.605 19.2538V20.5408C130.605 21.4821 130.676 22.3109 130.818 23.0273C130.959 23.7354 131.176 24.3352 131.468 24.8266C131.767 25.3098 132.151 25.6763 132.617 25.9262C133.092 26.1678 133.663 26.2886 134.329 26.2886C135.112 26.2886 135.758 26.1636 136.266 25.9137C136.774 25.6638 137.161 25.2931 137.428 24.8016C137.703 24.3102 137.865 23.6979 137.915 22.9649ZM156.32 26.0761V29H146.637V26.0761H156.32ZM147.861 10.8071V29H144.113V10.8071H147.861ZM155.058 18.2167V21.0656H146.637V18.2167H155.058ZM156.308 10.8071V13.7435H146.637V10.8071H156.308ZM165.592 22.515H160.956V19.5912H165.592C166.308 19.5912 166.891 19.4746 167.341 19.2413C167.791 18.9997 168.12 18.6665 168.328 18.2417C168.536 17.8169 168.641 17.3379 168.641 16.8048C168.641 16.2633 168.536 15.7593 168.328 15.2929C168.12 14.8264 167.791 14.4515 167.341 14.1683C166.891 13.8851 166.308 13.7435 165.592 13.7435H162.256V29H158.507V10.8071H165.592C167.016 10.8071 168.237 11.0653 169.253 11.5818C170.277 12.0899 171.06 12.7938 171.602 13.6935C172.143 14.5931 172.414 15.6219 172.414 16.7798C172.414 17.9543 172.143 18.9706 171.602 19.8286C171.06 20.6866 170.277 21.3488 169.253 21.8153C168.237 22.2818 167.016 22.515 165.592 22.515Z" fill="#E1E1E6"/>
</svg>
